# xmcd
#
# Track frame offsets: 
#        150
#        11871
#        23160
#        33982
#        46889
#        59211
#        70591
#        81357
#        94780
#        107692
#        117982
#        131988
#        141985
#        155385
#        166570
#        177837
#        191939
#        202940
#        215934
#        228322
#        241151
#        253335
#        264469
#        274212
#        282957
#        297297
#        309408
#        322285
#        333845
#        343682
#
# Disc length: 4757 seconds
#
# Revision: 0
# Processed by: cddbd v1.5.2PL0 Copyright (c) Steve Scherf et al.
# Submitted via: ExactAudioCopy v1.3
#
DISCID=cf12931e
DTITLE=Various Artist - How Britain Got The Blues Vol. 3 [CD1]
DYEAR=2015
DGENRE=Blues
TTITLE0=Willie Cobbs - You Don't Love Me
TTITLE1=Bo Diddley - Who Do You Love
TTITLE2=Howlin' Wolf - Wang Dang Doodle
TTITLE3=Bo Diddley - Pretty Thing
TTITLE4=Chuck Berry - You Can't Catch Me
TTITLE5=John Lee Hooker - Boom Boom
TTITLE6=Thurston Harris - Little Bitty Pretty One
TTITLE7=Boogaloo - Cops And Robbers
TTITLE8=Muddy Waters - Got My Mojo Working
TTITLE9=Dale Hawkins - Susie Q
TTITLE10=Howlin' Wolf - Smoke Stack Lightnin'
TTITLE11=Rick Nelson - Milk Cow Blues
TTITLE12=Buster Brown - Fannie Mae
TTITLE13=Bo Diddley - Cadillac
TTITLE14=Arthur "Big Boy" Crudup - My Baby Left Me
TTITLE15=Big Joe Williams - Baby Please Don't Go
TTITLE16=Jimmy Reed - Baby, What You Want To Do To Me
TTITLE17=Robert Petway - Catfish Blues
TTITLE18=Smiley Lewis - I Hear You Knocking
TTITLE19=Jimmy Reed - Big Boss Man
TTITLE20=Billy Boy Arnold - I Wish You Would
TTITLE21=Howlin' Wolf - You'll Be Mine
TTITLE22=Chuck Berry - Beautiful Delilah
TTITLE23=Chris Kenner - I Like It Like That, Pt. 1
TTITLE24=Elmore James - Dust My Blues
TTITLE25=Jimmy Reed - Bright Lights, Big City
TTITLE26=Muddy Waters - I'm Your Hoochie Coochie Man
TTITLE27=Bob Dylan - Baby, Let Me Follow You Down
TTITLE28=John Lee Hooker - Dimples
TTITLE29=Chuck Berry - Too Much Monkey Business
EXTD=
EXTT0=
EXTT1=
EXTT2=
EXTT3=
EXTT4=
EXTT5=
EXTT6=
EXTT7=
EXTT8=
EXTT9=
EXTT10=
EXTT11=
EXTT12=
EXTT13=
EXTT14=
EXTT15=
EXTT16=
EXTT17=
EXTT18=
EXTT19=
EXTT20=
EXTT21=
EXTT22=
EXTT23=
EXTT24=
EXTT25=
EXTT26=
EXTT27=
EXTT28=
EXTT29=
PLAYORDER=
